<svg width="120" height="20" viewBox="0 0 120 20" fill="none" xmlns="http://www.w3.org/2000/svg">
<path d="M5.66806 15.59C7.25323 15.59 8.56645 15.29 9.60677 14.69C10.6471 14.0892 11.1677 13.2158 11.1677 12.07C11.0874 10.5242 9.75097 9.365 7.15742 8.5925L5.76387 8.095C5.46 8.01167 5.24323 7.93 5.11548 7.84667C5.05645 7.81231 5.00811 7.766 4.97471 7.71181C4.9413 7.65761 4.92384 7.59719 4.92387 7.53583C4.92387 7.19083 5.18806 7.01917 5.71645 7.01917C6.37258 7.01917 6.86032 7.30833 7.18065 7.88833L10.7594 7.01833C9.89516 5.16833 8.22968 4.24417 5.76387 4.24417C4.29097 4.24417 3.06581 4.57583 2.08935 5.23833C1.1129 5.9 0.624194 6.76333 0.624194 7.825C0.624194 8.15667 0.680323 8.46333 0.792581 8.74667C0.904839 9.03 1.07323 9.27833 1.29677 9.49167C1.52129 9.70583 1.7371 9.89167 1.94516 10.0508C2.15323 10.2092 2.41742 10.3583 2.73871 10.4958C3.05806 10.6342 3.30194 10.7342 3.47032 10.7958C3.63871 10.8583 3.8671 10.9308 4.15452 11.0133L4.5629 11.1383L6.00484 11.5933C6.35613 11.7042 6.58548 11.7967 6.68903 11.8725C6.73963 11.9091 6.77987 11.9551 6.8067 12.0071C6.83353 12.0591 6.84624 12.1156 6.84387 12.1725C6.84387 12.5317 6.4529 12.7117 5.66806 12.7117C4.51548 12.7117 3.82645 12.27 3.6029 11.3867L0 12.0908C0.448065 14.4242 2.33806 15.5908 5.66806 15.5908V15.59ZM16.9287 15.59C18.5139 15.59 19.6819 15.065 20.4348 14.0167V15.3625H25.3819V4.47167H20.4348V10.435C20.4348 11.6633 19.9461 12.2767 18.9697 12.2767C17.9768 12.2767 17.4803 11.6633 17.4803 10.435V4.47167H12.5332V10.8492C12.5332 14.01 13.9984 15.5908 16.9287 15.5908V15.59ZM32.5123 15.3625V9.4C32.5123 8.17083 33 7.55667 33.9765 7.55667C34.9694 7.55667 35.4668 8.17083 35.4668 9.4V15.3625H40.4129V8.98583C40.4129 5.825 38.9487 4.24417 36.0184 4.24417C34.4332 4.24417 33.2642 4.76917 32.5123 5.8175V4.47167H27.5642V15.3625H32.5123V15.3625ZM47.399 15.3625V9.4C47.399 8.17083 47.8868 7.55667 48.8642 7.55667C49.8561 7.55667 50.3526 8.17083 50.3526 9.4V15.3625H55.3006V8.98583C55.3006 5.825 53.8355 4.24417 50.9052 4.24417C49.32 4.24417 48.151 4.76917 47.399 5.8175V4.47167H42.451V15.3625H47.399V15.3625ZM62.8626 20L70.8842 4.47167H65.7194L63.269 10.0417L61.0839 4.47167H55.68L60.9397 14.3067L58.0103 20H62.8626ZM76.0916 15.59C77.6768 15.59 78.99 15.29 80.0303 14.69C81.0716 14.0892 81.5923 13.2158 81.5923 12.07C81.5119 10.5242 80.1745 9.365 77.581 8.5925L76.1874 8.095C75.8835 8.01167 75.6677 7.93 75.539 7.84667C75.48 7.81231 75.4317 7.766 75.3983 7.71181C75.3648 7.65761 75.3474 7.59719 75.3474 7.53583C75.3474 7.19083 75.6116 7.01917 76.14 7.01917C76.7961 7.01917 77.2848 7.30833 77.6052 7.88833L81.1839 7.01833C80.3187 5.16833 78.6542 4.24417 76.1884 4.24417C74.7155 4.24417 73.4903 4.57583 72.5139 5.23833C71.5364 5.90083 71.0487 6.76333 71.0487 7.82583C71.0487 8.1575 71.1048 8.46417 71.2161 8.7475C71.3284 9.03083 71.4968 9.27917 71.7213 9.4925C71.9448 9.70667 72.1616 9.8925 72.3697 10.0517C72.5777 10.21 72.8419 10.3592 73.1623 10.4967C73.4816 10.635 73.7265 10.735 73.8948 10.7967C74.0623 10.8592 74.2916 10.9317 74.579 11.0142L74.9874 11.1392L76.4284 11.5942C76.7806 11.705 77.009 11.7975 77.1126 11.8733C77.1633 11.9098 77.2038 11.9558 77.2308 12.0078C77.2578 12.0598 77.2706 12.1164 77.2684 12.1733C77.2684 12.5325 76.8764 12.7125 76.0916 12.7125C74.94 12.7125 74.251 12.2708 74.0265 11.3875L70.4235 12.0908C70.8726 14.4242 72.7616 15.5908 76.0916 15.5908V15.59ZM85.5755 3.80917C86.4561 3.80917 87.1365 3.63 87.6174 3.27083C88.0965 2.9125 88.3374 2.45667 88.3374 1.90417C88.3374 1.33917 88.1052 0.879167 87.6406 0.528333C87.1761 0.175 86.4881 0 85.5755 0C84.6629 0 83.9739 0.175833 83.5094 0.528333C83.0448 0.88 82.8126 1.33917 82.8126 1.905C82.8126 2.45667 83.0535 2.9125 83.5335 3.27167C84.0145 3.63 84.6948 3.80917 85.5755 3.80917V3.80917ZM88.049 15.3625V4.47167H83.1V15.3625H88.0481H88.049ZM95.5394 15.59C97.2203 15.59 98.4203 15.065 99.1413 14.0167V15.3625H104.088V0.393333H99.1413V5.83833C98.4203 4.77583 97.2203 4.24417 95.5384 4.24417C93.8419 4.24417 92.4281 4.77917 91.2997 5.84917C90.1713 6.91833 89.6061 8.27417 89.6061 9.9175C89.6061 11.5592 90.1713 12.9158 91.2997 13.9858C92.4281 15.055 93.8419 15.59 95.5384 15.59H95.5394ZM96.8845 12.34C96.179 12.34 95.6148 12.1117 95.191 11.6567C94.7661 11.2008 94.5542 10.6208 94.5542 9.9175C94.5542 9.21333 94.7623 8.63417 95.1784 8.17833C95.611 7.7225 96.179 7.495 96.8835 7.495C97.5881 7.495 98.1523 7.7225 98.5771 8.17833C99.001 8.63333 99.2129 9.21333 99.2129 9.9175C99.2129 10.6208 99.001 11.2008 98.5771 11.6567C98.1523 12.1117 97.5881 12.34 96.8835 12.34H96.8845ZM113.044 15.59C115.557 15.59 117.519 14.9617 118.928 13.7067L116.886 11.3458C115.877 12.05 114.74 12.4017 113.475 12.4017C112.515 12.4017 111.735 12.215 111.134 11.8433C110.534 11.47 110.234 11.1108 110.234 10.7658H119.528C119.608 10.5175 119.648 10.1933 119.648 9.79333C119.648 8.08167 118.995 6.72917 117.691 5.735C116.385 4.74083 114.717 4.24417 112.683 4.24417C110.505 4.24417 108.785 4.80333 107.52 5.92167C106.255 7.03917 105.622 8.385 105.622 9.95833C105.622 11.5733 106.29 12.9158 107.627 13.9858C108.965 15.055 110.77 15.59 113.044 15.59V15.59ZM115.181 8.79917H110.234C110.265 8.28833 110.522 7.89917 111.002 7.62917C111.482 7.36 112.051 7.22583 112.707 7.22583C113.363 7.22583 113.932 7.36333 114.412 7.64C114.893 7.91583 115.149 8.3025 115.181 8.79917Z" fill="#2D7567"/>
</svg>
